<svg width="587" height="574" viewBox="0 0 587 574" fill="none" xmlns="http://www.w3.org/2000/svg">
<g opacity="0.5" filter="url(#filter0_f_99_1304)">
<path fill-rule="evenodd" clip-rule="evenodd" d="M283.616 174.854C318.398 174.892 355.384 146.6 383.955 171.47C414.732 198.26 434.569 252.109 424.244 297.263C414.543 339.685 368.949 343.324 339.243 367.002C320.212 382.171 305.525 402.646 283.616 409.351C252.785 418.787 217.679 435.526 192.057 412.049C165.034 387.288 162.846 339.179 161.287 297.263C159.627 252.629 155.246 199.125 183.102 171.251C210.335 143.999 248.771 174.816 283.616 174.854Z" fill="url(#paint0_linear_99_1304)"/>
</g>
<defs>
<filter id="filter0_f_99_1304" x="0" y="0" width="587" height="584" filterUnits="userSpaceOnUse" color-interpolation-filters="sRGB">
<feFlood flood-opacity="0" result="BackgroundImageFix"/>
<feBlend mode="normal" in="SourceGraphic" in2="BackgroundImageFix" result="shape"/>
<feGaussianBlur stdDeviation="80" result="effect1_foregroundBlur_99_1304"/>
</filter>
<linearGradient id="paint0_linear_99_1304" x1="293.5" y1="160" x2="293.5" y2="424" gradientUnits="userSpaceOnUse">
<stop stop-color="#03FFE0"/>
<stop offset="1" stop-color="#05A5FF"/>
</linearGradient>
</defs>
</svg>
