<svg width="37" height="36" viewBox="0 0 37 36" fill="none" xmlns="http://www.w3.org/2000/svg">
<path d="M29.3446 22.8901L25.5346 22.4551C25.0866 22.4025 24.6325 22.4521 24.2064 22.6002C23.7803 22.7483 23.3934 22.991 23.0746 23.3101L20.3146 26.0701C16.0564 23.9045 12.5952 20.4434 10.4296 16.1851L13.2046 13.4101C13.8496 12.7651 14.1646 11.8651 14.0596 10.9501L13.6246 7.17014C13.5395 6.4384 13.1884 5.76349 12.6379 5.27391C12.0875 4.78433 11.3762 4.51426 10.6396 4.51514H8.04457C6.34957 4.51514 4.93957 5.92514 5.04457 7.62014C5.83957 20.4301 16.0846 30.6601 28.8796 31.4551C30.5746 31.5601 31.9846 30.1501 31.9846 28.4551V25.8601C31.9996 24.3451 30.8596 23.0701 29.3446 22.8901Z" fill="#e757ea"/>
</svg>
